<?xml version="1.0" encoding="UTF-8"?>
<svg id="Layer_1" data-name="Layer 1" xmlns="http://www.w3.org/2000/svg" viewBox="0 0 1831 512.63">
  <defs>
    <style>
      .cls-1 {
        fill: #f7f5e7;
      }

      .cls-2 {
        fill: #c73f0b;
      }
    </style>
  </defs>
  <circle class="cls-2" cx="1386.86" cy="256.27" r="171.28"/>
  <g>
    <path class="cls-1" d="M3.41,479.9l-3.41-93.39h4.09c23.86,81.12,75.67,116.57,130.88,116.57s113.84-38.86,113.84-109.07c0-65.44-49.08-92.71-109.07-123.38l-33.4-17.04c-51.13-25.9-96.8-57.26-96.8-124.75C9.54,55.22,66.12,0,143.15,0c37.49,0,85.21,12.95,117.93,32.04v70.9h-4.09C235.18,36.13,190.19,9.54,141.79,9.54c-59.99,0-101.57,40.9-101.57,101.57s47.04,86.57,85.89,106.34l33.4,17.04c59.99,30.68,119.98,62.72,119.98,141.79s-60.67,136.34-149.97,136.34c-39.54,0-95.44-12.95-126.11-32.72Z"/>
    <path class="cls-1" d="M656.47,397.42l-15,107.02h-336.07v-4.09c46.35,0,49.08-25.9,49.08-76.35V88.62c0-50.44-2.73-76.35-49.08-76.35v-4.09h325.84l8.18,94.75h-4.09c-31.36-74.99-49.08-83.85-122.7-83.85h-119.98v221.55h95.44c58.62,0,68.85-15,78.39-65.44h4.09v146.56h-4.09c-9.54-46.35-19.77-70.21-78.39-70.21h-95.44v209.28c0,21.81,6.82,32.72,27.27,32.72h103.62c73.62,0,92.03-8.86,128.84-96.12h4.09Z"/>
    <path class="cls-1" d="M1044.34,500.35v4.09c-6.82,1.36-27.27,2.73-43.63,2.73-38.18,0-50.44-28.63-136.34-203.14-13.63-27.27-31.36-31.36-53.17-31.36h-46.35v151.33c0,50.44.68,76.35,47.04,76.35v4.09h-134.29v-4.09c46.35,0,49.08-25.9,49.08-76.35V88.62c0-50.44-2.73-76.35-49.08-76.35v-4.09h148.61c99.53,0,162.24,53.17,162.24,132.25,0,68.85-55.9,110.43-112.48,126.11v1.36c19.09,12.95,35.45,42.95,49.76,70.21,63.4,122.7,77.71,148.61,118.61,162.24ZM764.85,261.77h57.26c84.53,0,124.07-44.99,124.07-118.61s-38.17-124.07-123.38-124.07h-32.04c-16.36,0-25.9,8.18-25.9,24.54v218.14Z"/>
    <path class="cls-1" d="M1396.09,397.42l-15,107.02h-336.07v-4.09c46.35,0,49.08-25.9,49.08-76.35V88.62c0-50.44-2.73-76.35-49.08-76.35v-4.09h325.84l8.18,94.75h-4.09c-31.36-74.99-49.08-83.85-122.7-83.85h-119.98v221.55h95.43c58.63,0,68.85-15,78.39-65.44h4.09v146.56h-4.09c-9.54-46.35-19.77-70.21-78.39-70.21h-95.43v209.28c0,21.81,6.82,32.72,27.27,32.72h103.62c73.62,0,92.03-8.86,128.84-96.12h4.09Z"/>
    <path class="cls-1" d="M1705.57,8.18h125.43v4.09c-44.99,0-51.81,40.9-51.81,111.8v385.83h-4.09L1483.34,50.44v353.79c0,56.58,6.82,96.12,57.94,96.12v4.09h-130.2v-4.09c49.08,0,59.99-39.54,59.99-96.12V81.8c0-44.31-13.63-64.08-59.99-69.53v-4.09h90.66l265.17,417.19V124.07c0-70.89-9.54-111.8-61.35-111.8v-4.09Z"/>
  </g>
  <path class="cls-1" d="M1471.03,154.87c.19,23.86,1.81,41.87-10.04,59.65-20.45,30.68-64.76,34.08-83.51,34.08,20.45,0,54.23,2.48,78.39,34.08,22.16,28.97,11.69,56.91,15.34,74.99"/>
  <path class="cls-1" d="M727.99,154.87c.19,23.86,1.81,41.87-10.04,59.65-20.45,30.68-64.76,34.08-83.51,34.08,20.45,0,54.23,2.48,78.39,34.08,22.16,28.97,11.69,56.91,15.34,74.99"/>
</svg>