<svg width="44" height="55" viewBox="0 0 44 55" fill="none" xmlns="http://www.w3.org/2000/svg">
<path d="M26.2271 19.3243C16.4111 19.3243 8.45422 27.3108 8.45422 37.1621C8.45422 47.0135 16.4116 55 26.2271 55C36.0426 55 44 47.0135 44 37.1621C44 27.3108 36.0426 19.3243 26.2271 19.3243ZM12.16 48.3041C8.44789 48.3041 3.19993 47.0839 0.320151 45.2206L0 36.4205H0.383971C2.62398 44.0645 7.48796 47.4047 12.6721 47.4047C17.8562 47.4047 23.36 43.7432 23.36 37.1272C23.36 30.9607 18.7518 28.3912 13.1199 25.5009L9.98377 23.8948C5.18361 21.4539 0.89558 18.499 0.89558 12.1398C0.896108 5.20308 6.20788 0 13.44 0C16.9601 0 21.4401 1.2207 24.5119 3.01894V9.69947H24.1279C22.0799 3.40432 17.8557 0.899383 13.3119 0.899383C7.67994 0.899383 3.77589 4.75365 3.77589 10.4702C3.77589 16.1868 8.19208 18.6282 11.8398 20.4905L14.9759 22.0966C20.6078 24.9869 26.2398 28.0063 26.2398 35.4571C26.2398 42.9078 20.5435 48.3041 12.16 48.3041Z" fill="#C73F0B"/>
</svg>
