<?xml version="1.0" encoding="UTF-8"?>
<svg id="Layer_1" data-name="Layer 1" xmlns="http://www.w3.org/2000/svg" viewBox="0 0 1051.71 1039">
  <defs>
    <style>
      .cls-1 {
        fill: #c73f0b;
      }
    </style>
  </defs>
  <path class="cls-1" d="M714.73,365.05c-186.11,0-336.97,150.87-336.97,336.97s150.87,336.97,336.97,336.97,336.97-150.87,336.97-336.97-150.87-336.97-336.97-336.97ZM448.02,912.5c-70.38,0-169.88-23.05-224.48-58.25l-6.07-166.24h7.28c42.47,144.4,134.69,207.5,232.98,207.5s202.64-69.17,202.64-194.15c0-116.49-87.37-165.03-194.15-219.63l-59.46-30.34c-91.01-46.11-172.31-101.93-172.31-222.06C234.46,98.29,335.17,0,472.29,0c66.74,0,151.68,23.06,209.92,57.03v126.2h-7.28c-38.83-118.92-118.92-166.24-205.07-166.24-106.78,0-180.8,72.81-180.8,180.8s83.73,154.11,152.89,189.29l59.46,30.34c106.78,54.6,213.56,111.64,213.56,252.39s-108,242.69-266.95,242.69Z"/>
</svg>